PathFileType	4	(X/Y/Z)	D:\TRACE\spotREDO_2-26-24\spot_justArm_Motion_3_1-platform.trc
DataRate	CameraRate	NumFrames	NumMarkers	Units	OrigDataRate	OrigDataStartFrame	OrigNumFrames
100.00	100.00	      37	5	mm	100.00	1751	      7000
Frame#	Time	Left_Front			Right_Front			Left_Aft			Right_Aft			Post			
		X1	Y1	Z1	X2	Y2	Z2	X3	Y3	Z3	X4	Y4	Z4	X5	Y5	Z5	

1751	17.500	-726.27100	-8.06396	-576.82605	688.66559	0.88551	-492.18018	-797.42761	8.96800	642.48297	771.86377	15.41248	646.57257	-16.41176	616.04956	-987.97748	
1752	17.510	-726.28076	-8.01671	-576.78949	688.59167	0.97864	-492.24805	-797.36786	8.91409	642.46356	771.75305	15.27547	646.58112	-16.50401	616.25909	-987.92767	
1753	17.520	-726.27167	-7.96884	-576.78174	688.55481	1.12554	-492.22745	-797.49823	8.75626	642.46191	771.71741	15.16917	646.58789	-16.67412	616.48645	-987.85034	
1754	17.530	-726.22528	-7.86774	-576.75745	688.53137	1.15879	-492.18161	-797.42291	8.77332	642.48132	771.72168	15.09241	646.60913	-16.63195	616.61078	-987.69098	
1755	17.540	-726.22388	-7.77488	-576.72681	688.44513	1.24425	-492.11279	-797.55505	8.55836	642.48328	771.68286	14.91735	646.60443	-16.58152	616.81903	-987.33191	
1756	17.550	-726.20502	-7.64156	-576.68604	688.45258	1.36453	-492.12848	-797.53101	8.51465	642.50775	771.63568	14.75013	646.64862	-16.44897	616.91931	-987.07983	
1757	17.560	-726.25354	-7.54715	-576.64587	688.34747	1.40034	-492.15250	-797.60864	8.37958	642.57446	771.60370	14.59144	646.74060	-16.49995	617.10071	-986.78174	
1758	17.570	-726.30261	-7.43724	-576.62488	688.25854	1.61731	-492.04129	-797.62219	8.24192	642.61554	771.63928	14.47494	646.83978	-16.60682	617.35120	-986.56049	
1759	17.580	-726.38934	-7.26441	-576.50488	688.32367	1.74486	-491.96286	-797.62128	8.15979	642.59857	771.62183	14.40661	646.85327	-16.32533	617.75146	-986.04431	
1760	17.590	-726.34943	-7.17006	-576.50671	688.37549	1.87350	-491.84262	-797.66113	8.09897	642.63715	771.60278	14.36154	646.91461	-16.37646	617.94092	-985.93927	
1761	17.600	-726.39020	-7.06334	-576.43518	688.33948	1.95961	-491.82684	-797.69446	8.01839	642.67517	771.61310	14.27578	646.94513	-16.45033	618.14172	-985.82935	
1762	17.610	-726.43311	-6.95680	-576.39172	688.34717	2.03655	-491.81461	-797.66937	7.89413	642.66870	771.66431	14.19821	646.94800	-16.46225	618.39905	-985.77216	
1763	17.620	-726.46625	-6.86373	-576.32788	688.22876	2.10104	-491.82831	-797.62219	7.75779	642.76855	771.57745	14.05914	646.97522	-16.62438	618.57904	-985.74982	
1764	17.630	-726.48889	-6.75984	-576.32916	688.25146	2.18049	-491.83057	-797.67828	7.63716	642.80511	771.61639	13.95159	647.00659	-16.65585	618.77148	-985.77100	
1765	17.640	-726.50946	-6.64465	-576.29181	688.27759	2.32259	-491.78006	-797.63513	7.46655	642.86041	771.56165	13.76942	647.02563	-16.67641	618.90033	-985.77545	
1766	17.650	-726.49194	-6.52949	-576.22687	688.21387	2.42385	-491.76981	-797.47369	7.41712	642.92480	771.43719	13.59586	647.01929	-16.72304	619.05902	-985.70221	
1767	17.660	-726.48444	-6.38720	-576.26129	688.20105	2.51727	-491.75949	-797.46228	7.28609	642.94452	771.29480	13.40521	647.05365	-16.72826	619.21649	-985.55121	
1768	17.670	-726.53607	-6.24107	-576.24377	687.98047	2.83790	-491.84143	-797.45850	7.17085	642.96777	771.31561	13.29155	647.08392	-16.66217	619.35681	-985.37695	
1769	17.680	-726.54193	-6.13050	-576.21753	688.01379	2.83426	-491.83340	-797.46533	7.02369	643.02710	771.28784	13.20253	647.09448	-16.91157	619.49719	-985.46710	
1770	17.690	-726.52368	-6.04012	-576.20264	688.09686	2.91195	-491.79388	-797.44238	6.85803	643.04584	771.48743	12.74030	646.81403	-16.83716	619.61731	-985.17499	
1771	17.700	-726.56891	-5.92074	-576.16479	687.95734	2.99321	-491.80539	-797.43323	6.71276	643.07355	771.38867	12.91269	647.20056	-16.92693	619.89453	-984.81512	
1772	17.710	-726.63062	-5.82703	-576.14337	687.99054	3.10586	-491.76089	-797.48462	6.55274	643.12689	771.40112	12.76034	647.26080	-17.03187	620.06970	-984.54327	
1773	17.720	-726.62390	-5.75082	-576.10144	687.90167	3.21429	-491.75793	-797.59760	6.37707	643.11389	771.32788	12.61709	647.36560	-17.08298	620.34052	-984.12659	
1774	17.730	-726.73651	-5.56036	-576.10089	687.85150	3.30621	-491.70972	-797.57404	6.32696	643.11383	771.27863	12.50820	647.42664	-17.10807	620.50128	-983.89856	
1775	17.740	-726.73639	-5.46813	-576.07001	687.83179	3.41273	-491.70837	-797.76855	6.19706	643.11835	771.25146	12.45120	647.49347	-17.15005	620.64911	-983.87347	
1776	17.750	-726.72626	-5.32963	-576.04987	687.89594	3.56876	-491.60446	-797.79199	6.10339	643.14514	771.32013	12.38165	647.50232	-17.17845	620.83600	-983.83813	
1777	17.760	-726.82446	-5.14214	-575.97473	687.92273	3.57299	-491.46713	-797.87305	5.99621	643.18622	771.25635	12.29757	647.57782	-17.30720	621.04327	-983.76569	
1778	17.770	-726.80334	-5.07823	-575.95496	687.82867	3.61992	-491.40460	-797.92432	5.91407	643.18353	771.28265	12.24605	647.56934	-17.32676	621.18304	-983.77161	
1779	17.780	-726.88647	-4.99754	-575.89783	687.82648	3.66174	-491.41718	-797.98456	5.82114	643.26550	771.22638	12.18161	647.60034	-17.32386	621.31390	-983.73663	
1780	17.790	-726.93726	-4.92626	-575.88678	687.81921	3.74028	-491.31049	-797.99652	5.75917	643.25946	771.16345	12.14830	647.65332	-17.32461	621.39612	-983.66174	
1781	17.800	-726.95221	-4.82067	-575.88531	687.76294	3.82854	-491.33191	-798.06702	5.75783	643.22369	771.17633	12.09240	647.63165	-17.30802	621.47339	-983.60815	
1782	17.810	-726.99677	-4.76396	-575.87762	687.69812	3.84771	-491.36929	-798.10992	5.71442	643.23138	771.15869	12.08682	647.69226	-17.22231	621.56671	-983.53772	
1783	17.820	-727.08490	-4.74327	-575.85248	687.71082	3.90283	-491.36542	-798.15436	5.63253	643.26276	771.14825	11.99813	647.66919	-17.16666	621.64252	-983.45673	
1784	17.830	-727.19714	-4.65751	-575.83160	687.65619	3.95438	-491.29813	-798.23279	5.52714	643.32385	771.09454	11.98882	647.69965	-17.26716	621.78625	-983.32043	
1785	17.840	-727.23083	-4.65453	-575.84277	687.62628	3.95753	-491.29349	-798.33954	5.52418	643.31952	771.00848	11.90401	647.68579	-17.38333	621.95776	-983.10706	
1786	17.850	-727.28564	-4.62467	-575.82928	687.49438	4.07374	-491.38525	-798.35986	5.44193	643.30200	771.00562	11.84947	647.71289	-17.53193	622.17255	-982.85986	
1787	17.860	-727.33362	-4.56626	-575.84241	687.48102	4.07889	-491.29132	-798.41101	5.42169	643.31805	770.99896	11.77135	647.74548	-17.57788	622.33160	-982.80792	
